<svg id="visual" viewBox="0 0 900 600" width="900" height="600" xmlns="http://www.w3.org/2000/svg" xmlns:xlink="http://www.w3.org/1999/xlink" version="1.1"><g transform="translate(45.33056755672186 -123.17005647269423)"><path d="M259.7 -429.6C364 -389.5 495.1 -375.5 605.8 -308.3C716.4 -241 806.7 -120.5 755.1 -29.8C703.5 60.9 510.1 121.9 421.6 227.5C333.1 333.2 349.5 483.6 296.8 603.6C244 723.6 122 813.3 -8.4 827.9C-138.8 842.5 -277.7 781.9 -398.8 701.3C-519.9 620.8 -623.2 520.1 -716.3 399.9C-809.4 279.7 -892.2 139.8 -848.8 25.1C-805.3 -89.7 -635.6 -179.3 -529.3 -276.6C-422.9 -373.9 -380 -478.8 -302.3 -534.3C-224.7 -589.8 -112.3 -595.9 -17.3 -565.9C77.7 -535.9 155.3 -469.7 259.7 -429.6" fill="#BB004B"></path></g></svg>