<svg id="visual" viewBox="0 0 900 600" width="900" height="600" xmlns="http://www.w3.org/2000/svg" xmlns:xlink="http://www.w3.org/1999/xlink" version="1.1"><path d="M0 451L21.5 458.2C43 465.3 86 479.7 128.8 470.7C171.7 461.7 214.3 429.3 257.2 428C300 426.7 343 456.3 385.8 455.5C428.7 454.7 471.3 423.3 514.2 427C557 430.7 600 469.3 642.8 481C685.7 492.7 728.3 477.3 771.2 469.8C814 462.3 857 462.7 878.5 462.8L900 463L900 601L878.5 601C857 601 814 601 771.2 601C728.3 601 685.7 601 642.8 601C600 601 557 601 514.2 601C471.3 601 428.7 601 385.8 601C343 601 300 601 257.2 601C214.3 601 171.7 601 128.8 601C86 601 43 601 21.5 601L0 601Z" fill="#171233" stroke-linecap="round" stroke-linejoin="miter"></path></svg>