<svg id="visual" viewBox="0 0 1920 1080" width="1920" height="1080" xmlns="http://www.w3.org/2000/svg" xmlns:xlink="http://www.w3.org/1999/xlink" version="1.1"><path d="M0 813L45.7 825.7C91.3 838.3 182.7 863.7 274.2 847.5C365.7 831.3 457.3 773.7 548.8 771.5C640.3 769.3 731.7 822.7 823 821C914.3 819.3 1005.7 762.7 1097 769.3C1188.3 776 1279.7 846 1371.2 867C1462.7 888 1554.3 860 1645.8 846.3C1737.3 832.7 1828.7 833.3 1874.3 833.7L1920 834L1920 1081L1874.3 1081C1828.7 1081 1737.3 1081 1645.8 1081C1554.3 1081 1462.7 1081 1371.2 1081C1279.7 1081 1188.3 1081 1097 1081C1005.7 1081 914.3 1081 823 1081C731.7 1081 640.3 1081 548.8 1081C457.3 1081 365.7 1081 274.2 1081C182.7 1081 91.3 1081 45.7 1081L0 1081Z" fill="#D455A1" stroke-linecap="round" stroke-linejoin="miter"></path></svg>